Coordinates
version=1
nRows=15
nColumns=46
inDegrees=yes

Units are S.I. units (second, meters, Newtons, ...)
Angles are in degrees.

endheader
time	pelvis_tilt	pelvis_list	pelvis_rotation	pelvis_tx	pelvis_ty	pelvis_tz	bb_angle	bb_tx	bb_ty	bb_tz	hip_flexion_r	hip_adduction_r	hip_rotation_r	knee_angle_r	knee_angle_r_beta	ankle_angle_r	subtalar_angle_r	mtp_angle_r	crank_angle_r	hip_flexion_l	hip_adduction_l	hip_rotation_l	knee_angle_l	knee_angle_l_beta	ankle_angle_l	subtalar_angle_l	mtp_angle_l	crank_angle_l	lumbar_extension	lumbar_bending	lumbar_rotation	arm_flex_r	arm_add_r	arm_rot_r	elbow_flex_r	pro_sup_r	wrist_flex_r	wrist_dev_r	arm_flex_l	arm_add_l	arm_rot_l	elbow_flex_l	pro_sup_l	wrist_flex_l	wrist_dev_l
      2.50500000	    -27.84084155	     -1.54832740	     -8.71998928	      0.30641032	      1.06449871	     -0.24941980	      0.00000000	      0.50000000	      0.00000000	      0.25000000	     62.93333420	     -0.25778518	      0.29161901	     55.31673566	      0.96545917	      5.11625170	     -3.02009217	      0.00000000	      0.00000000	     59.42766278	     -5.43364096	      1.49337073	     89.32021946	      1.55893192	    -25.00461308	    -22.51852933	      0.00000000	      0.00000000	    -55.38166773	      0.51665479	      1.76064273	     58.88546310	    -12.58892007	     20.64174973	     92.57123348	     51.81270148	      0.00000000	      0.00000000	     44.10714856	    -19.66516513	      6.30939042	    101.55854988	     52.24339895	      0.00000000	      0.00000000
      2.51000000	    -27.58682661	     -1.09358996	     -8.13594780	      0.30647127	      1.06219666	     -0.25039428	      0.00000000	      0.50000000	      0.00000000	      0.25000000	     61.87553565	     -0.93144308	      0.65759829	     54.04260354	      0.94322137	      4.65866321	     -2.98822474	      0.00000000	      0.00000000	     60.38861173	     -4.87619647	      1.10983077	     91.38128418	      1.59490428	    -24.64051784	    -22.73106599	      0.00000000	      0.00000000	    -55.27522057	      0.44625235	      0.97099206	     58.67398545	    -12.81430474	     20.55523796	     92.63492395	     51.82027935	      0.00000000	      0.00000000	     44.11473087	    -19.57913690	      6.47903792	    101.52853877	     52.25884443	      0.00000000	      0.00000000
      2.51500000	    -27.54964668	     -0.83590084	     -7.31136199	      0.30663627	      1.05981439	     -0.25178273	      0.00000000	      0.50000000	      0.00000000	      0.25000000	     60.92319522	     -1.76662981	      0.43187633	     52.60444237	      0.91812072	      3.42500471	     -3.50525360	      0.00000000	      0.00000000	     61.61306521	     -4.25217439	      1.13847068	     93.45246504	      1.63105321	    -23.51661353	    -22.27270422	      0.00000000	      0.00000000	    -54.93947552	      0.76036428	      0.41746941	     58.00801010	    -13.21911484	     20.46516374	     93.04526673	     51.90485959	      0.00000000	      0.00000000	     44.10541462	    -19.80925349	      7.01579590	    101.54857955	     52.33264255	      0.00000000	      0.00000000
      2.52000000	    -27.32515926	     -0.30561381	     -6.79318891	      0.30674168	      1.05760728	     -0.25269736	      0.00000000	      0.50000000	      0.00000000	      0.25000000	     59.90213539	     -2.51800991	      0.71014608	     51.34950966	      0.89621801	      2.87235221	     -3.27930292	      0.00000000	      0.00000000	     62.56834406	     -3.72534810	      0.69318766	     95.38211021	      1.66473187	    -23.02678981	    -22.44362298	      0.00000000	      0.00000000	    -54.77414967	      0.59473043	     -0.31983217	     57.78862747	    -13.40215281	     20.37611865	     93.10773376	     51.91206925	      0.00000000	      0.00000000	     44.11230255	    -19.74264893	      7.17314974	    101.49639236	     52.34309064	      0.00000000	      0.00000000
      2.52500000	    -27.22517477	      0.06980416	     -6.04404571	      0.30708422	      1.05564805	     -0.25407693	      0.00000000	      0.50000000	      0.00000000	      0.25000000	     58.88814296	     -3.47549544	      0.43191168	     49.95380242	      0.87185833	      1.69675820	     -3.33323150	      0.00000000	      0.00000000	     63.60760514	     -3.04989761	      0.60454750	     97.21810485	      1.69677602	    -21.63886488	    -21.64853422	      0.00000000	      0.00000000	    -54.53230203	      0.77483249	     -0.80662792	     57.04535659	    -13.61756323	     20.06980766	     93.51187511	     51.97930821	      0.00000000	      0.00000000	     44.15298446	    -19.99449148	      7.71117674	    101.38415875	     52.39715794	      0.00000000	      0.00000000
      2.53000000	    -27.02388555	      0.58799989	     -5.49743997	      0.30755588	      1.05379404	     -0.25485995	      0.00000000	      0.50000000	      0.00000000	      0.25000000	     57.90120596	     -4.34065780	      0.45598128	     48.82194836	      0.85210375	      0.86625697	     -3.00840230	      0.00000000	      0.00000000	     64.48879213	     -2.55299982	      0.18328945	     98.96788990	      1.72731553	    -20.89969226	    -21.68495457	      0.00000000	      0.00000000	    -54.34859610	      0.68660969	     -1.47578340	     56.64805856	    -13.74235087	     19.95469254	     93.53725595	     51.98274820	      0.00000000	      0.00000000	     44.15349194	    -19.99027596	      7.89185304	    101.30460493	     52.40704869	      0.00000000	      0.00000000
      2.53500000	    -26.83603447	      1.11126506	     -4.97431680	      0.30802037	      1.05197141	     -0.25573181	      0.00000000	      0.50000000	      0.00000000	      0.25000000	     56.94313642	     -5.25315662	      0.33399668	     47.71465984	      0.83277792	     -0.08929415	     -2.65751732	      0.00000000	      0.00000000	     65.37586121	     -2.02114990	     -0.19440339	    100.69255571	      1.75741663	    -19.86243199	    -21.40994753	      0.00000000	      0.00000000	    -54.17665527	      0.60173747	     -2.13532486	     56.18549422	    -13.81206543	     19.78499021	     93.57008991	     51.98290933	      0.00000000	      0.00000000	     44.14735073	    -20.05040132	      8.13228812	    101.20843386	     52.42081886	      0.00000000	      0.00000000
      2.54000000	    -26.58455061	      1.50456752	     -4.49085982	      0.30859281	      1.05027537	     -0.25625065	      0.00000000	      0.50000000	      0.00000000	      0.25000000	     55.91946914	     -6.05439027	      0.06623264	     46.72309274	      0.81547180	     -0.98597042	     -2.42133983	      0.00000000	      0.00000000	     66.19060631	     -1.63587399	     -0.27068317	    102.48640863	      1.78872527	    -17.91717235	    -19.44268127	      0.00000000	      0.00000000	    -54.02598840	      0.53348523	     -2.60508052	     55.52223885	    -13.54367698	     19.23241334	     93.69866914	     51.97488962	      0.00000000	      0.00000000	     44.24601426	    -20.38115725	      8.85583183	    100.97276326	     52.46965145	      0.00000000	      0.00000000
      2.54500000	    -26.40008586	      2.02749524	     -4.20733651	      0.30891683	      1.04867815	     -0.25648096	      0.00000000	      0.50000000	      0.00000000	      0.25000000	     55.04668081	     -6.74349543	      0.10880395	     45.77513003	      0.79892673	     -1.82365454	     -2.03706080	      0.00000000	      0.00000000	     67.08246750	     -1.36017449	     -0.69460660	    104.15514703	      1.81785025	    -17.16059660	    -19.43516552	      0.00000000	      0.00000000	    -53.86065597	      0.23391484	     -3.24663106	     55.30906354	    -13.62757611	     19.05426329	     93.71803234	     51.95460109	      0.00000000	      0.00000000	     44.28131888	    -20.35461700	      9.00627766	    100.88594041	     52.46118932	      0.00000000	      0.00000000
      2.55000000	    -26.31601808	      2.60878308	     -3.85120661	      0.30968290	      1.04758734	     -0.25685717	      0.00000000	      0.50000000	      0.00000000	      0.25000000	     54.16687853	     -7.63295347	     -0.10316568	     44.55857805	      0.77769390	     -3.29660032	     -1.39972993	      0.00000000	      0.00000000	     67.93586632	     -0.98633939	     -1.12936655	    105.65655322	      1.84405473	    -15.60230887	    -18.92110222	      0.00000000	      0.00000000	    -53.64433122	      0.03483024	     -3.71734751	     54.78696944	    -13.52188205	     18.82426185	     93.67210709	     51.92858071	      0.00000000	      0.00000000	     44.34338306	    -20.50577771	      9.29104300	    100.71823456	     52.45806183	      0.00000000	      0.00000000
      2.55500000	    -26.10932648	      3.04779019	     -3.59714850	      0.31031070	      1.04648000	     -0.25653751	      0.00000000	      0.50000000	      0.00000000	      0.25000000	     53.21283454	     -8.25844541	     -0.28910273	     43.59210134	      0.76082570	     -4.50091787	     -1.02615711	      0.00000000	      0.00000000	     68.69842005	     -0.84339043	     -1.21215777	    107.28575910	      1.87248974	    -13.09791231	    -16.49678222	      0.00000000	      0.00000000	    -53.50707393	     -0.38176669	     -3.93809653	     54.00147083	    -13.05920201	     17.69300860	     93.72971071	     51.83981124	      0.00000000	      0.00000000	     44.79723974	    -20.89397153	     10.45022774	    100.14527165	     52.47491558	      0.00000000	      0.00000000
      2.56000000	    -26.05656916	      3.62634358	     -3.41811654	      0.31078302	      1.04554628	     -0.25620068	      0.00000000	      0.50000000	      0.00000000	      0.25000000	     52.46710202	     -8.95727852	     -0.38079899	     42.59802333	      0.74347576	     -5.74086173	     -0.37380787	      0.00000000	      0.00000000	     69.62379322	     -0.74375197	     -1.74238053	    108.71259466	      1.89739272	    -11.99067530	    -16.47813486	      0.00000000	      0.00000000	    -53.28321916	     -0.83223051	     -4.47447277	     53.69499680	    -13.07082107	     17.54503074	     93.70064284	     51.81106330	      0.00000000	      0.00000000	     44.86779928	    -20.90006939	     10.64394409	     99.95712126	     52.44713252	      0.00000000	      0.00000000
      2.56500000	    -25.95497677	      4.24134720	     -3.27533393	      0.31144764	      1.04511467	     -0.25565999	      0.00000000	      0.50000000	      0.00000000	      0.25000000	     51.61207293	     -9.67045018	     -0.46808859	     41.48971184	      0.72413208	     -7.25924067	      0.23798266	      0.00000000	      0.00000000	     70.37893216	     -0.72524442	     -2.17056603	    110.06597443	      1.92101365	     -9.62880842	    -14.61412192	      0.00000000	      0.00000000	    -53.08889930	     -1.37893712	     -4.61522952	     52.89338496	    -12.67136703	     16.57586255	     93.62385565	     51.72904622	      0.00000000	      0.00000000	     45.49861873	    -21.22922509	     11.88022139	     98.99572999	     52.41137733	      0.00000000	      0.00000000
      2.57000000	    -25.99332528	      4.84517384	     -3.08673458	      0.31191396	      1.04466300	     -0.25539569	      0.00000000	      0.50000000	      0.00000000	      0.25000000	     50.87963791	    -10.42459223	     -0.64325073	     40.36464282	      0.70449592	     -8.60997912	      0.96852002	      0.00000000	      0.00000000	     71.31478567	     -0.64487829	     -2.74512394	    111.28004775	      1.94220322	     -8.35090459	    -14.58163176	      0.00000000	      0.00000000	    -52.83876266	     -1.82499185	     -5.01895373	     52.51312230	    -12.66633130	     16.40123821	     93.57147149	     51.70085135	      0.00000000	      0.00000000	     45.63715347	    -21.23443459	     12.12325947	     98.77676660	     52.38739064	      0.00000000	      0.00000000
      2.57500000	    -26.05595868	      5.43720417	     -2.90929928	      0.31246107	      1.04454085	     -0.25502481	      0.00000000	      0.50000000	      0.00000000	      0.25000000	     50.09173395	    -11.14135725	     -0.88901181	     39.14363369	      0.68318529	     -9.98563082	      1.57565128	      0.00000000	      0.00000000	     72.22917185	     -0.61426607	     -3.30528632	    112.38261233	      1.96144661	     -6.91841117	    -14.20073055	      0.00000000	      0.00000000	    -52.59674629	     -2.33627069	     -5.44695165	     52.11550978	    -12.65998025	     16.19056446	     93.48362414	     51.66975259	      0.00000000	      0.00000000	     45.81031866	    -21.27916912	     12.46007927	     98.48715655	     52.36804548	      0.00000000	      0.00000000
